PathFileType	4	(X/Y/Z)	C:/Users/opensim2020/Desktop/walking_exp_matlab/subject01_walking10_straight_03.trc	
DataRate	CameraRate	NumFrames	NumMarkers	Units	OrigDataRate	OrigDataStartFrame	OrigNumFrames	
100.00	100.00	8	43	mm	100.00	2889	317	
Frame#	Time	LFHD			RFHD			LBHD			RBHD			C7			T10			CLAV			STRN			RBAK			LSHO			LUPA			LELB			LFRM			LWRA			LWRB			LFIN			RSHO			RUPA			RELB			RFRM			RWRA			RWRB			RFIN			LASI			RASI			LPSI			RPSI			LTHI			LKNE			LTIB			LANK			LHEE			LTOE			RTHI			RKNE			RTIB			RANK			RHEE			RTOE			*39			*40			*41			*42			
		X1	Y1	Z1	X2	Y2	Z2	X3	Y3	Z3	X4	Y4	Z4	X5	Y5	Z5	X6	Y6	Z6	X7	Y7	Z7	X8	Y8	Z8	X9	Y9	Z9	X10	Y10	Z10	X11	Y11	Z11	X12	Y12	Z12	X13	Y13	Z13	X14	Y14	Z14	X15	Y15	Z15	X16	Y16	Z16	X17	Y17	Z17	X18	Y18	Z18	X19	Y19	Z19	X20	Y20	Z20	X21	Y21	Z21	X22	Y22	Z22	X23	Y23	Z23	X24	Y24	Z24	X25	Y25	Z25	X26	Y26	Z26	X27	Y27	Z27	X28	Y28	Z28	X29	Y29	Z29	X30	Y30	Z30	X31	Y31	Z31	X32	Y32	Z32	X33	Y33	Z33	X34	Y34	Z34	X35	Y35	Z35	X36	Y36	Z36	X37	Y37	Z37	X38	Y38	Z38	X39	Y39	Z39	X40	Y40	Z40	X41	Y41	Z41	X42	Y42	Z42	X43	Y43	Z43	

40	0.390	1459.36108	-667.18365	1663.53674	1569.30786	-637.99768	1669.65552	1482.92065	-771.55310	1598.30005	1599.74463	-742.66418	1603.13489	1502.74353	-778.49463	1413.57690	1503.88953	-808.97266	1121.65686	1501.62146	-633.72534	1349.83435	1487.50928	-588.49652	1195.04724	1567.40784	-830.12292	1214.80249	1341.28870	-690.52185	1384.41956	1249.28613	-694.75183	1201.99097	1240.89832	-677.94537	1049.09143	1221.63806	-596.23682	965.54474	1246.29065	-477.35477	898.48993	1221.23853	-522.04047	868.36517	1213.80505	-448.27881	828.91388	1654.15332	-700.87958	1367.37378	1737.52637	-775.26276	1165.97046	1737.63635	-780.18018	1042.94202	1770.61560	-765.14001	923.74463	1762.51501	-691.79205	801.70795	1794.71484	-740.92725	805.51489	1798.50928	-709.08746	726.67334	1381.86829	-654.12354	909.32117	1594.41565	-623.28467	921.98981	1460.54675	-831.14716	927.06085	1604.99451	-809.01257	931.72992	1342.76990	-732.25757	578.06708	1359.28394	-765.49847	445.84409	1360.64380	-873.99316	288.93781	1418.84399	-968.07990	91.81106	1477.61963	-1013.56750	72.23584	1390.63525	-838.45654	28.77344	1665.55469	-597.14679	602.60339	1634.42310	-542.69305	455.72736	1648.83643	-555.36011	280.15872	1607.87659	-539.81433	73.14217	1560.18066	-586.40179	30.48172	1602.95862	-398.79193	46.01345	1550.52747	-658.86877	1700.97791	-3101.98804	1973.13293	1023.47589	-3140.66138	2012.55627	1021.97083			 
41	0.400	1461.21021	-660.66919	1663.97314	1570.99048	-630.98914	1670.24414	1484.79907	-764.52332	1598.73376	1601.58911	-735.62585	1603.72241	1504.44714	-771.64459	1413.86780	1505.35950	-801.31525	1121.98865	1503.41089	-626.52734	1350.60168	1489.23767	-581.00806	1195.93860	1568.99207	-822.76978	1215.13525	1343.06335	-683.35248	1385.06091	1251.32336	-688.26886	1202.62439	1242.85962	-671.94788	1049.77087	1223.36938	-591.11023	965.65546	1247.22314	-472.96628	897.24304	1222.66333	-518.12408	867.46460	1214.68188	-444.75348	827.42474	1655.95361	-693.96167	1367.99609	1738.88672	-767.56915	1166.13123	1738.87195	-772.05518	1043.12598	1771.60242	-756.44781	923.97791	1763.42749	-682.40796	802.33380	1795.48828	-731.68085	805.86053	1799.13074	-699.38177	727.08594	1383.42773	-645.81073	909.96954	1596.14233	-615.42242	922.81689	1461.55811	-822.69708	927.54608	1605.81335	-801.19452	932.82678	1343.23401	-723.46228	578.55243	1359.46289	-756.57239	446.29303	1360.52356	-867.63342	291.32419	1418.34412	-965.91498	96.25388	1476.98828	-1011.48456	77.59889	1390.63037	-838.18585	28.86838	1666.24426	-589.75018	602.67072	1635.20337	-536.07776	455.28207	1649.43896	-550.79663	279.61264	1607.95520	-538.17444	72.86417	1560.52783	-585.55945	31.23473	1602.60632	-397.56161	43.66446	1552.26611	-651.96960	1701.51672	-3101.90845	1973.18726	1023.34351	-3140.70776	2012.55151	1022.10870			 
42	0.410	1462.90186	-653.77588	1664.63586	1572.64490	-624.01660	1670.95825	1486.65430	-757.74908	1599.50781	1603.39600	-728.58868	1604.43201	1506.19800	-764.79260	1414.27161	1506.78735	-793.66461	1122.41174	1505.24194	-619.38629	1351.45032	1490.98547	-573.52759	1196.89709	1570.67151	-815.35065	1215.50586	1344.92822	-676.26654	1385.92761	1253.22058	-681.84344	1203.40552	1244.82886	-666.11401	1050.57849	1225.09802	-586.17578	965.71039	1247.92297	-468.78220	895.72748	1224.42017	-514.59967	866.56049	1215.73840	-441.39417	825.64734	1657.71936	-687.04956	1368.81958	1740.31787	-759.80194	1166.46619	1740.07800	-763.89691	1043.54736	1772.65735	-747.68933	924.43317	1764.34155	-672.92102	803.17279	1796.39844	-722.19098	806.41638	1799.95081	-689.63910	727.73254	1385.36438	-636.92908	910.85449	1598.22205	-607.48505	923.68658	1462.65369	-814.27380	928.15479	1607.18176	-793.22748	933.42896	1343.90271	-714.26398	579.08472	1359.47961	-747.15729	446.90521	1360.21057	-860.97906	293.84494	1417.52478	-963.15320	100.62450	1476.15906	-1009.17145	83.42548	1390.72412	-838.01648	29.16772	1664.86694	-584.96722	600.56812	1635.81921	-530.03668	454.37814	1650.13220	-546.70898	279.07986	1607.98169	-537.02710	72.59858	1560.35657	-584.85272	31.52339	1602.95593	-396.65457	41.75050	1553.94092	-645.11200	1702.14026	-3101.99219	1973.05066	1023.39777	-3140.70215	2012.50134	1022.10370			 
43	0.420	1464.60559	-646.87665	1665.37036	1574.27148	-617.01898	1671.72791	1488.47156	-750.74646	1600.19116	1605.17261	-721.60175	1605.24268	1507.96704	-757.87341	1414.79956	1508.21326	-786.04333	1122.92480	1507.00134	-612.31409	1352.36951	1492.74390	-566.09790	1197.92798	1572.35278	-807.90613	1215.97302	1346.74866	-669.29993	1386.73425	1255.08777	-675.28082	1204.19287	1246.95801	-660.47180	1051.43396	1226.82190	-581.57617	965.70227	1248.88257	-464.82465	894.38861	1225.96240	-511.31049	865.58221	1216.81592	-438.49768	823.80615	1659.48669	-680.02557	1369.75964	1741.91394	-752.02936	1167.02600	1741.45471	-755.74811	1044.11340	1773.74158	-738.96753	925.01007	1765.31445	-663.38147	804.18597	1797.15381	-712.59515	807.13989	1800.66699	-679.70508	728.49860	1387.55042	-628.07776	911.95483	1600.43201	-599.62964	924.53552	1463.78931	-805.87756	928.80493	1608.41052	-785.31000	934.07214	1344.47839	-704.68506	579.67950	1359.51440	-737.02875	447.18808	1359.83533	-853.68286	296.36911	1416.55334	-959.96802	105.39445	1475.18188	-1006.36591	89.81528	1390.72363	-837.45361	29.06778	1665.76501	-577.49274	600.64606	1636.92603	-524.16022	453.92749	1650.68420	-543.19452	278.51047	1607.99854	-536.12836	72.39202	1560.21057	-583.96588	31.26380	1603.22876	-395.89380	40.36156	1555.60547	-638.03033	1702.94458	-3102.11792	1972.98169	1023.88464	-3140.70679	2012.47302	1021.94678			 
44	0.430	1466.15234	-639.95575	1666.18542	1575.87109	-610.07629	1672.51270	1490.17468	-743.99298	1601.08911	1606.88757	-714.61774	1606.12878	1509.80713	-750.94379	1415.43896	1509.67456	-778.50427	1123.45911	1508.72961	-605.24030	1353.37341	1494.54700	-558.68091	1199.04871	1574.11536	-800.40741	1216.45581	1348.59595	-662.42255	1387.62158	1256.81152	-668.60089	1205.10034	1249.04797	-655.08319	1052.23901	1228.60754	-577.17932	965.59412	1249.78906	-461.13498	892.93958	1227.52258	-508.14896	864.55377	1217.94885	-435.94315	821.76324	1661.25146	-672.95929	1370.69592	1743.63184	-744.20624	1167.71802	1742.87512	-747.60352	1044.78369	1774.96399	-730.12421	925.71442	1766.31226	-653.76715	805.30408	1798.14807	-703.17065	807.89166	1801.42200	-669.63007	729.33948	1389.48584	-619.85004	912.98303	1602.80591	-591.58746	925.40619	1465.02808	-797.55634	929.50867	1609.76880	-777.43970	934.47217	1345.15393	-694.64117	580.28064	1359.22925	-726.27136	447.65811	1359.33069	-845.83942	299.10406	1415.44556	-956.18585	110.24950	1474.17383	-1003.11255	96.76653	1390.78882	-836.88940	29.03354	1666.91174	-570.64075	600.88635	1637.94153	-519.09924	453.40866	1651.31335	-539.94672	278.15836	1608.02759	-535.33447	72.27848	1560.26770	-583.70734	31.50466	1603.08813	-395.18140	39.35711	1557.19092	-631.00403	1703.79651	-3101.99414	1973.00610	1023.56775	-3140.76001	2012.39697	1021.95508			 
45	0.440	1467.75635	-633.15546	1666.95532	1577.35742	-603.11462	1673.35437	1491.90710	-737.04700	1601.88708	1608.56152	-707.67517	1607.04285	1511.64294	-744.00372	1416.09058	1511.21594	-770.98987	1124.07068	1510.47656	-598.23218	1354.38391	1496.26453	-551.35577	1200.17883	1576.02063	-792.94977	1217.05591	1350.43726	-655.64716	1388.51428	1258.44617	-662.06659	1206.00195	1251.20349	-649.62555	1052.80676	1230.37683	-572.98517	965.43494	1250.75586	-457.66418	891.42523	1229.07642	-505.23193	863.48950	1219.10132	-433.50412	819.82898	1662.93201	-665.89319	1371.69373	1745.53284	-736.36676	1168.57214	1744.42212	-739.41577	1045.51709	1776.22009	-721.27051	926.45703	1767.31494	-644.08197	806.54254	1799.33655	-693.37927	808.88110	1802.23340	-659.47223	730.37756	1391.53516	-611.71271	914.12872	1604.93774	-583.99396	926.21979	1466.33459	-789.39624	930.22937	1611.20874	-769.94958	935.08923	1345.78162	-684.19043	580.80743	1359.00964	-715.16473	448.26007	1358.80750	-837.23242	301.88135	1414.42896	-952.04895	115.84925	1473.08435	-999.01251	104.15781	1390.67017	-836.60620	29.31371	1668.17603	-564.54425	601.10754	1638.94434	-514.41956	453.07016	1651.87134	-536.95892	277.81708	1607.97864	-534.71051	72.16193	1560.39368	-583.56427	31.68710	1602.73218	-394.54984	38.46903	1558.69727	-624.18152	1704.64526	-3101.89697	1973.10217	1023.52405	-3140.81787	2012.41577	1021.95093			 
46	0.450	1469.16052	-626.49573	1667.69995	1578.80249	-596.24695	1674.23804	1493.53442	-730.36823	1602.86865	1610.18176	-700.76581	1608.06262	1513.39392	-737.06207	1416.70984	1512.82227	-763.52545	1124.69592	1512.14307	-591.18475	1355.41089	1498.04578	-543.99445	1201.29370	1578.01355	-785.48590	1217.64160	1352.18884	-648.86243	1389.35327	1260.01074	-655.33899	1206.93555	1253.30725	-644.55939	1053.58142	1232.14624	-569.03778	965.16144	1251.80713	-454.46277	889.85699	1230.63940	-502.44946	862.34137	1220.29785	-431.42676	817.77802	1664.64905	-658.73090	1372.73926	1747.60205	-728.46936	1169.48535	1746.05994	-731.27496	1046.25757	1777.57678	-712.35242	927.19415	1768.31140	-634.25476	807.82996	1800.28882	-683.44843	809.81818	1802.92603	-649.03088	731.40778	1393.70264	-603.51074	915.31750	1607.05676	-576.39484	927.13556	1467.69019	-781.43915	930.97552	1612.56213	-762.15027	935.56378	1346.24377	-673.17151	581.29089	1358.72314	-703.00977	448.59857	1358.25623	-828.04645	304.93637	1413.23975	-947.19781	121.47459	1472.08643	-994.05682	111.96073	1390.81592	-835.67157	29.55398	1671.37195	-556.18127	603.30151	1639.96814	-510.05560	452.79294	1652.42041	-534.24298	277.47925	1608.04163	-534.25818	72.17037	1560.26514	-583.25549	31.53073	1602.63940	-394.06229	37.95678	1560.19006	-617.16321	1705.54407	-3101.99390	1973.00134	1023.94885	-3140.53271	2012.51953	1021.96246			 
47	0.460	1470.63623	-619.59863	1668.48962	1580.22424	-589.39368	1675.10999	1495.08008	-723.59918	1603.71875	1611.73340	-693.89728	1609.01746	1515.26611	-730.37476	1417.54614	1514.49878	-756.10730	1125.29810	1513.74524	-584.26605	1356.34290	1499.73596	-536.74878	1202.38708	1580.03162	-778.04681	1218.28564	1353.88184	-642.10046	1390.19080	1261.57153	-648.80707	1207.70166	1255.53247	-639.32074	1054.06921	1233.86853	-565.17889	964.88593	1252.89221	-451.34314	888.17212	1232.18311	-499.85751	861.14606	1221.57764	-429.33435	815.56366	1666.26733	-651.58008	1373.67505	1749.78125	-720.55377	1170.44641	1747.91003	-723.21313	1047.06763	1779.10828	-703.29974	928.00330	1769.34680	-624.35651	809.14270	1801.44849	-673.64148	810.61023	1803.85107	-638.59991	732.46979	1395.79529	-595.64996	916.41467	1609.27283	-568.63373	928.16229	1469.12573	-773.68616	931.64026	1614.00732	-754.80048	936.39825	1346.54993	-661.72827	581.72656	1358.35547	-690.07452	448.92621	1357.73364	-818.17657	308.11618	1412.20850	-941.64111	127.52849	1471.17493	-988.07117	119.99580	1390.60413	-835.42163	30.25448	1670.65674	-553.87604	601.47760	1641.35266	-505.65222	452.78741	1653.06885	-531.74976	277.28384	1608.07397	-533.87329	72.02355	1560.85925	-583.69470	32.19424	1602.53162	-393.69376	37.39355	1561.57068	-610.30341	1706.41174	-3101.93799	1973.18457	1023.58258	-3140.68799	2012.56458	1022.08545			 
